<?xml version="1.0" encoding="iso-8859-1"?>
<!-- Generator: Adobe Illustrator 19.0.0, SVG Export Plug-In . SVG Version: 6.00 Build 0)  -->
<svg version="1.1" id="Capa_1" xmlns="http://www.w3.org/2000/svg" xmlns:xlink="http://www.w3.org/1999/xlink" x="0px" y="0px"
	 viewBox="0 0 464 464" style="enable-background:new 0 0 464 464;" xml:space="preserve">

	 <style>
	 	@keyframes example {
		0%    { transform: translate(5px, 5px) rotate(10deg); }
		100%    { transform: translate(5px, 5px) rotate(0deg); }
	 	}
	 	svg {
				 animation: example 3s ease infinite;
	 	}
	 </style>

<path style="fill:#8C421C;" d="M376,204c-48.601,0-88,39.399-88,88s39.399,88,88,88s88-39.399,88-88S424.601,204,376,204z M376,356
	c-35.346,0-64-28.654-64-64s28.654-64,64-64s64,28.654,64,64S411.346,356,376,356z"/>
<path style="fill:#733616;" d="M314.096,308c-0.623-2.412-1.104-4.859-1.44-7.328c-0.04-0.264-0.088-0.52-0.12-0.8
	c-0.34-2.611-0.519-5.24-0.536-7.872h-24c0,2.76,0.168,5.472,0.416,8.168s0.632,5.256,1.104,7.832H314.096z"/>
<path style="fill:#8C421C;" d="M88,204c-48.601,0-88,39.399-88,88s39.399,88,88,88s88-39.399,88-88S136.601,204,88,204z M88,356
	c-35.346,0-64-28.654-64-64s28.654-64,64-64s64,28.654,64,64S123.346,356,88,356z"/>
<path style="fill:#733616;" d="M125.752,240.4l5.736-24.8c-6.537-3.721-13.529-6.579-20.8-8.504l-6.184,23.16
	C112.155,232.288,119.361,235.728,125.752,240.4z"/>
<g>
	<path style="fill:#88B337;" d="M376,300H232c-2.388-0.002-4.65-1.07-6.168-2.912l-112-136l12.336-10.176L235.776,284H363.36
		l-64.424-136H128v-16h176c3.081,0.012,5.881,1.792,7.2,4.576l72,152c1.891,3.993,0.187,8.763-3.806,10.654
		C378.333,299.733,377.174,299.996,376,300L376,300z"/>
	<path style="fill:#88B337;" d="M239.28,295.32l-14.56-6.64L312,100l14.56,6.64L239.28,295.32z"/>
</g>
<path style="fill:#8C421C;" d="M72,84c-22.091,0-40,17.909-40,40s17.909,40,40,40h16v-16H72c-13.255,0-24-10.745-24-24
	s10.745-24,24-24h16V84H72z"/>
<path style="fill:#88B337;" d="M142.28,87.048c-1.516-1.924-3.83-3.047-6.28-3.048H88v16h37.848l-45.6,190.136l15.568,3.728l48-200
	C144.376,91.477,143.81,88.965,142.28,87.048L142.28,87.048z"/>
<path style="fill:#77A226;" d="M312,124h6.536l8.024-17.36L312,100l-9.72,21.008L312,124z"/>
<path style="fill:#8C421C;" d="M281.448,84h67.24C354.935,84,360,89.065,360,95.312v0c0,3-1.191,5.878-3.312,8
	c-12.601,12.594-31.4,16.66-48.08,10.4l-30.472-11.432c-3.688-1.375-6.134-4.896-6.136-8.832C272,88.23,276.23,84,281.448,84
	L281.448,84z"/>
<g>
</g>
<g>
</g>
<g>
</g>
<g>
</g>
<g>
</g>
<g>
</g>
<g>
</g>
<g>
</g>
<g>
</g>
<g>
</g>
<g>
</g>
<g>
</g>
<g>
</g>
<g>
</g>
<g>
</g>
</svg>
